# xmcd CD database file
#
# Track frame offsets:
#	150
#	15717
#	30165
#	48145
#	60232
#	74787
#	92972
#	106790
#	126055
#	143822
#
# Disc length: 2186 seconds
#
# Revision: 4
# Processed by: cddbd v1.5.2PL0 Copyright (c) Steve Scherf et al.
# Submitted via: CDex 1.81
#
DISCID=7c08880a,80084e0a
DTITLE=Mindy McCready - Super Hits - Mindy McCready
DYEAR=2000
DGENRE=Country
TTITLE0=Ten Thousand Angels
TTITLE1=Guys Do It All The Time
TTITLE2=Maybe He'll Notice Her Now
TTITLE3=A Girl's Gotta Do (What A Girl's Gotta Do)
TTITLE4=What If I Do
TTITLE5=You'll Never Know
TTITLE6=The Other Side Of This Kiss
TTITLE7=Oh Romeo
TTITLE8=Over And Over
TTITLE9=Long, Long Time
EXTD=YEAR: 2000
EXTT0=
EXTT1=
EXTT2=
EXTT3=
EXTT4=
EXTT5=
EXTT6=
EXTT7=
EXTT8=
EXTT9=
PLAYORDER=
